<svg xmlns="http://www.w3.org/2000/svg" width="22.875" height="22.875" viewBox="0 0 22.875 22.875"><defs><style>.a{fill:#bbb;}</style></defs><path class="a" d="M15.188,3.75A11.438,11.438,0,1,0,26.625,15.188,11.451,11.451,0,0,0,15.188,3.75Zm5.05,14.839a1.328,1.328,0,1,1-1.878,1.878L15.187,17.3l-3.171,3.172a1.328,1.328,0,0,1-1.878-1.878l3.171-3.171-3.171-3.172a1.328,1.328,0,0,1,1.878-1.878l3.171,3.172,3.172-3.172a1.328,1.328,0,1,1,1.878,1.878l-3.172,3.172Z" transform="translate(-3.75 -3.75)"/></svg>