<svg xmlns="http://www.w3.org/2000/svg" width="24.751" height="16.5" viewBox="0 0 24.751 16.5"><defs><style>.a{fill:#bbb;}</style></defs><path class="a" d="M24.6,12.123A13.782,13.782,0,0,0,12.375,4.5,13.784,13.784,0,0,0,.15,12.123a1.39,1.39,0,0,0,0,1.254A13.782,13.782,0,0,0,12.375,21,13.784,13.784,0,0,0,24.6,13.377,1.39,1.39,0,0,0,24.6,12.123ZM12.375,18.938a6.188,6.188,0,1,1,6.188-6.188A6.188,6.188,0,0,1,12.375,18.938Zm0-10.313a4.1,4.1,0,0,0-1.088.163,2.056,2.056,0,0,1-2.875,2.875,4.116,4.116,0,1,0,3.962-3.038Z" transform="translate(0 -4.5)"/></svg>